PathFileType  4	(X/Y/Z) C:\Users\antoi\Documents\MyRepositories\mobilecap\ResultsAnalysis
DataRate	CameraRate	NumFrames	NumMarkers	Units	OrigDataRate	OrigDataStartFrame	OrigNumFrames
100.0	100.0	4	51	mm	100.0	86	136
Frame#	Time	r_knee			r_shank_antsup			r_ankle			r_calc			r_5meta			r_toe			L_knee			L_shank_antsup			L_ankle			L_calc			L_5meta			L_toe			r_sh2			r_sh3			r_sh4			L_sh2			L_sh3			r_thigh1			r_thigh2			r_thigh3			r_thigh4			r_thigh5			L_thigh1			L_thigh2			L_thigh3			L_thigh4			r.ASIS			r.PSIS			L.ASIS			L.PSIS			C7			R_Shoulder			L_Shoulder			R_Sternum			L_Sternum			R_humerus			R_elbow_med			R_elbow_lat			R_forearm			R_wrist_radius			R_wrist_ulna			L_humerus			L_elbow_med			L_elbow_lat			L_forearm			L_wrist_radius			L_wrist_ulna			R_HJC			L_HJC			R_HJC_reg			L_HJC_reg			
		X1	Y1	Z1	X2	Y2	Z2	X3	Y3	Z3	X4	Y4	Z4	X5	Y5	Z5	X6	Y6	Z6	X7	Y7	Z7	X8	Y8	Z8	X9	Y9	Z9	X10	Y10	Z10	X11	Y11	Z11	X12	Y12	Z12	X13	Y13	Z13	X14	Y14	Z14	X15	Y15	Z15	X16	Y16	Z16	X17	Y17	Z17	X18	Y18	Z18	X19	Y19	Z19	X20	Y20	Z20	X21	Y21	Z21	X22	Y22	Z22	X23	Y23	Z23	X24	Y24	Z24	X25	Y25	Z25	X26	Y26	Z26	X27	Y27	Z27	X28	Y28	Z28	X29	Y29	Z29	X30	Y30	Z30	X31	Y31	Z31	X32	Y32	Z32	X33	Y33	Z33	X34	Y34	Z34	X35	Y35	Z35	X36	Y36	Z36	X37	Y37	Z37	X38	Y38	Z38	X39	Y39	Z39	X40	Y40	Z40	X41	Y41	Z41	X42	Y42	Z42	X43	Y43	Z43	X44	Y44	Z44	X45	Y45	Z45	X46	Y46	Z46	X47	Y47	Z47	X48	Y48	Z48	X49	Y49	Z49	X50	Y50	Z50	X51	Y51	Z51	

86	0.85000000	971.26002	506.10467	-69.72660	974.63301	431.33761	-73.66492	709.13221	242.17762	-140.33858	663.16177	265.43373	-197.44896	733.51455	125.19114	-114.66296	789.24699	111.50608	-155.28221	884.42607	465.56260	-363.14483	915.64258	379.59162	-337.47429	822.63307	89.02289	-327.94650	760.68652	54.89712	-292.33339	927.98458	42.64527	-346.01777	971.24947	56.45408	-284.64869	885.90613	361.12243	-86.08227	926.48070	487.46577	-56.91897	830.50092	422.71308	-75.70607	845.64495	399.09193	-392.23715	827.91005	277.97740	-393.06092	923.06599	748.36825	-61.76419	969.04458	645.42309	-55.40097	918.62499	597.94646	-61.53751	821.03915	700.60514	-82.08300	875.06609	598.94263	-93.27075	913.18716	740.93991	-433.61642	924.90784	606.42972	-397.84715	802.63185	723.82145	-444.76773	807.81671	601.52323	-386.91344	917.20995	933.69838	-146.57465	711.60166	954.78238	-237.08913	932.48666	929.03556	-367.52960	720.25651	955.14636	-317.93966	824.03499	1403.18866	-256.25507	862.33450	1369.56941	-111.64011	869.42734	1369.23477	-391.68995	943.32013	1328.06431	-223.81074	944.28123	1329.90952	-266.24427	875.45793	1256.49745	-48.89378	786.99965	1053.11171	-62.26986	825.25029	1059.40020	-8.22944	894.12110	993.08348	-3.79724	947.74266	857.08368	-14.73225	921.19301	851.05528	14.33788	876.02258	1269.45331	-464.68315	818.55214	1049.48964	-459.72415	851.26805	1071.22077	-516.00331	919.54155	987.51499	-527.87824	965.86259	866.80046	-520.64101	938.62399	861.49890	-550.38919	836.97573	843.85835	-157.71959	853.02180	842.32447	-364.59774	848.92042	859.86427	-184.63856	864.48431	860.51930	-330.01430	
87	0.86000000	991.30444	510.03199	-71.32981	997.71335	435.01214	-75.54537	738.67698	235.65014	-139.31195	690.63871	256.30623	-195.87688	769.68548	120.29405	-113.93989	825.53294	109.65388	-155.29527	887.21787	465.83137	-362.98447	917.80511	379.72333	-337.81182	822.87782	89.48737	-327.66220	760.83501	55.45575	-292.14008	928.06316	42.61586	-345.98883	971.12092	56.12828	-284.63400	911.69499	361.49735	-86.76517	947.21001	489.51166	-57.77261	854.03846	420.90774	-75.30609	847.24492	399.71361	-391.92862	828.64034	278.75739	-392.74443	937.00488	751.12140	-61.58494	985.34630	649.40176	-56.07804	936.07020	600.70128	-62.09031	835.71779	701.10854	-81.41778	892.32457	601.02186	-93.45513	921.10847	740.69577	-433.27499	930.65190	606.18249	-397.31025	810.25712	725.45806	-444.32064	813.35638	603.15983	-386.24291	928.25266	934.93365	-146.98742	722.33299	955.99156	-235.73673	942.71891	929.69230	-367.81782	730.66550	956.28714	-316.56975	835.01457	1404.05077	-256.53317	872.88465	1370.46028	-111.73524	880.64224	1370.18516	-391.75661	954.13835	1329.13196	-223.73917	955.02904	1330.70509	-266.25153	884.16564	1257.30667	-48.57875	792.70265	1055.28705	-63.09384	830.35997	1061.04895	-8.43329	897.51865	993.17192	-2.69067	947.73671	855.68319	-12.21091	920.77228	850.50959	16.52927	888.00908	1270.70274	-464.89094	832.78817	1050.08991	-460.42691	865.38841	1072.27509	-516.74454	935.44560	989.87874	-527.92576	984.70814	870.46575	-519.86969	957.64827	864.29845	-549.65764	848.16667	845.11693	-157.12720	862.85989	843.14823	-364.10003	859.84692	860.94097	-184.68559	874.82832	861.47265	-330.01167	
88	0.87000000	1010.63929	513.69296	-73.17700	1020.29181	438.59933	-77.65726	768.90878	228.10193	-138.11483	718.76237	246.00890	-193.95862	806.82536	114.80464	-113.34079	862.56344	107.46422	-155.52184	889.95577	466.13980	-362.77902	919.91939	379.89451	-337.98765	823.09921	89.99029	-327.43358	760.99918	56.02666	-291.94414	928.14207	42.59258	-345.95739	970.96147	55.76904	-284.62477	937.37489	361.56006	-87.49478	967.43938	491.10695	-58.68713	877.35539	418.48042	-74.91393	848.94896	400.34587	-391.58823	829.49849	279.55809	-392.41293	950.73841	753.61699	-61.40697	1001.26333	653.06664	-56.98302	953.00926	603.25952	-62.75332	850.18180	701.60801	-80.73804	909.01417	602.99931	-93.89150	928.95635	740.40554	-432.85918	936.26874	605.91099	-396.67152	817.88760	727.06538	-443.77105	818.92738	604.71943	-385.56042	939.30395	935.94879	-147.36125	733.04016	957.01855	-234.19398	952.92149	930.24438	-368.10535	741.02515	957.22253	-315.00093	845.99583	1404.77320	-256.77637	883.44969	1371.26477	-111.82116	891.91697	1370.99639	-391.79063	964.96611	1330.11496	-223.65721	965.73026	1331.34737	-266.25672	892.90516	1258.07919	-48.23817	798.51321	1057.38504	-63.81322	835.59717	1062.71960	-8.56970	901.03803	993.38008	-1.54601	947.79249	854.50296	-9.70218	920.54949	850.18169	18.72420	900.05516	1271.81228	-465.06639	846.87224	1050.63445	-461.15103	879.35827	1073.23883	-517.50183	951.19389	992.20535	-527.95774	1003.40734	874.23184	-518.98799	976.59527	867.14200	-548.79001	859.41894	846.15128	-156.48612	872.64170	843.84621	-363.55349	870.75878	861.88491	-184.66087	885.11612	862.25160	-329.96447	
89	0.88000000	1029.21690	517.00817	-75.23021	1042.25476	442.05739	-79.92019	799.82648	219.66460	-136.73767	747.60790	234.65895	-191.71041	844.83126	108.89341	-112.82909	900.23327	105.07509	-155.87870	892.69563	466.46944	-362.52471	922.01334	380.08331	-337.97253	823.31633	90.52651	-327.25074	761.17934	56.59751	-291.74497	928.22246	42.57660	-345.92580	970.86271	55.42126	-284.62436	962.85115	361.34802	-88.24906	987.15749	492.20866	-59.66878	900.41032	415.47711	-74.55799	850.82677	400.98147	-391.21870	830.55077	280.36709	-392.07549	964.29712	755.83117	-61.25551	1016.80735	656.38204	-58.12533	969.44504	605.57571	-63.53603	864.47259	702.07946	-80.10104	925.17476	604.82043	-94.50429	936.74017	740.05910	-432.34645	941.78325	605.60560	-395.92441	825.54160	728.60911	-443.15339	824.52895	606.19968	-384.86137	950.37602	936.75058	-147.65724	743.74602	957.85153	-232.53929	963.10353	930.64256	-368.35870	751.36816	957.95692	-313.31002	856.98353	1405.34869	-256.99130	894.01677	1371.96085	-111.89303	903.25450	1371.64789	-391.79383	975.80665	1330.98044	-223.54817	976.44401	1331.85478	-266.23065	901.67293	1258.78465	-47.86673	804.44330	1059.40317	-64.40743	840.97515	1064.37953	-8.64212	904.70755	993.68134	-0.37432	947.99425	853.53516	-7.20855	920.56625	850.05133	20.93012	912.16138	1272.75580	-465.20133	860.80973	1051.09330	-461.92676	893.21517	1074.09067	-518.28179	966.81041	994.45974	-527.95234	1021.93504	878.04838	-517.97576	995.46221	869.99828	-547.79789	870.70591	846.97175	-155.78956	882.40649	844.38003	-362.94530	881.67106	862.64624	-184.54844	895.38112	862.83543	-329.85866	
